<?xml version="1.0" standalone="no"?>
<!DOCTYPE svg PUBLIC "-//W3C//DTD SVG 20010904//EN"
 "http://www.w3.org/TR/2001/REC-SVG-20010904/DTD/svg10.dtd">
<svg version="1.0" xmlns="http://www.w3.org/2000/svg"
 width="724.000000pt" height="724.000000pt" viewBox="0 0 724.000000 724.000000"
 preserveAspectRatio="xMidYMid meet">
<metadata>
Created by potrace 1.11, written by Peter Selinger 2001-2013
</metadata>
<g transform="translate(0.000000,724.000000) scale(0.100000,-0.100000)"
fill="#000000" stroke="none">
<path d="M4341 7229 c-19 -8 -67 -42 -136 -97 -5 -4 -37 -28 -70 -52 -33 -25
-62 -47 -65 -50 -3 -4 -23 -19 -45 -35 -22 -16 -54 -41 -70 -55 -17 -14 -42
-33 -55 -43 -49 -35 -86 -62 -101 -74 -15 -13 -160 -126 -201 -155 -29 -22
-617 -474 -638 -491 -8 -6 -51 -39 -95 -72 -44 -33 -82 -62 -85 -65 -3 -3 -61
-48 -130 -100 -104 -79 -218 -166 -290 -223 -9 -7 -52 -39 -95 -72 -44 -33
-82 -62 -85 -65 -3 -3 -52 -41 -110 -85 -58 -43 -106 -82 -108 -87 -2 -4 -8
-8 -13 -8 -6 0 -20 -9 -32 -21 -12 -12 -38 -31 -57 -44 -19 -13 -44 -31 -55
-42 -11 -10 -36 -29 -55 -43 -19 -13 -37 -27 -40 -30 -3 -3 -59 -46 -125 -95
-65 -50 -126 -97 -135 -105 -9 -8 -86 -68 -171 -132 -85 -64 -163 -124 -174
-132 -11 -9 -47 -37 -80 -62 -33 -25 -73 -56 -90 -69 -71 -55 -276 -212 -301
-230 -24 -17 -105 -81 -170 -133 -38 -30 -57 -81 -51 -134 5 -40 31 -95 57
-118 3 -3 19 -23 36 -45 16 -22 68 -89 114 -150 47 -60 107 -140 135 -176 308
-406 374 -485 411 -502 63 -28 126 -15 194 40 8 7 165 127 349 268 183 141
378 291 433 333 55 42 114 87 131 100 18 12 39 28 47 35 8 7 71 55 140 107 69
52 130 99 136 105 6 5 23 19 38 30 16 11 33 25 40 30 6 6 56 44 111 85 55 41
109 83 120 92 11 9 133 103 270 207 138 105 264 202 280 215 17 14 73 57 125
97 222 169 307 233 332 253 14 12 39 31 55 43 184 139 322 246 340 262 12 12
27 21 32 21 5 0 11 3 13 8 2 4 41 36 88 72 47 35 87 68 88 72 2 4 10 8 17 8 7
0 15 4 17 8 3 8 113 94 267 209 31 23 62 47 69 54 8 6 62 48 120 92 59 45 109
85 110 89 2 4 8 8 12 8 19 0 58 47 70 84 23 71 1 134 -82 231 -9 11 -44 56
-77 100 -33 44 -64 85 -68 90 -8 9 -220 285 -311 405 -142 186 -166 214 -202
232 -38 19 -91 22 -129 7z m-2889 -2478 c34 -2 100 -75 233 -257 11 -15 25
-32 30 -38 6 -6 22 -27 35 -46 13 -19 27 -37 30 -40 3 -3 28 -34 55 -70 27
-36 52 -67 55 -70 21 -18 150 -205 151 -219 0 -9 2 -24 4 -34 6 -30 -14 -82
-42 -113 -16 -16 -64 -56 -108 -89 -44 -33 -87 -65 -95 -72 -8 -6 -43 -33 -77
-60 -34 -26 -74 -57 -89 -68 -16 -11 -36 -28 -46 -37 -10 -10 -22 -18 -27 -18
-5 0 -11 -3 -13 -7 -1 -5 -30 -28 -63 -53 -33 -25 -61 -48 -63 -52 -2 -5 -10
-8 -17 -8 -7 0 -15 -4 -17 -9 -1 -5 -21 -20 -42 -35 -84 -56 -172 -26 -256 88
-41 55 -304 399 -334 436 -58 72 -120 158 -128 179 -12 30 -11 81 2 117 13 33
38 55 210 188 535 413 508 394 570 390 14 -1 33 -2 42 -3z"/>
<path d="M5964 6286 c-27 -10 -91 -50 -104 -66 -3 -3 -52 -41 -110 -85 -57
-43 -111 -85 -120 -91 -8 -7 -33 -27 -55 -43 -22 -17 -45 -34 -50 -38 -6 -5
-37 -28 -70 -52 -33 -25 -64 -50 -70 -55 -5 -6 -53 -43 -105 -82 -52 -40 -140
-106 -195 -148 -55 -43 -134 -103 -175 -134 -41 -31 -83 -63 -92 -71 -34 -32
-47 -41 -58 -41 -5 0 -10 -3 -10 -7 0 -5 -17 -19 -37 -33 -20 -14 -41 -29 -47
-35 -6 -5 -29 -23 -51 -39 -22 -17 -42 -32 -45 -35 -3 -4 -41 -33 -85 -66 -44
-33 -121 -91 -171 -130 -49 -38 -103 -79 -118 -90 -16 -11 -33 -25 -40 -30 -6
-6 -38 -31 -71 -55 -33 -25 -62 -47 -65 -50 -3 -4 -61 -48 -130 -100 -69 -52
-127 -97 -130 -100 -3 -3 -43 -34 -90 -69 -47 -35 -97 -76 -112 -90 -16 -13
-28 -22 -28 -18 0 4 -8 -1 -18 -10 -10 -10 -33 -29 -52 -43 -80 -60 -106 -81
-127 -100 -12 -11 -25 -20 -27 -20 -3 0 -43 -29 -88 -65 -46 -35 -99 -77 -119
-92 -21 -15 -50 -38 -65 -50 -16 -12 -85 -65 -154 -118 -69 -52 -132 -101
-140 -108 -88 -70 -140 -107 -151 -107 -7 0 -10 -3 -6 -6 3 -4 -10 -17 -29
-30 -19 -13 -40 -29 -47 -34 -7 -6 -46 -36 -87 -67 -41 -32 -77 -60 -80 -63
-3 -3 -67 -51 -142 -108 -155 -117 -180 -150 -172 -230 4 -38 17 -63 76 -142
39 -52 74 -97 77 -100 3 -3 19 -23 36 -45 16 -22 34 -45 40 -51 5 -6 17 -22
25 -34 8 -12 30 -41 48 -64 39 -50 31 -39 127 -166 44 -58 90 -116 102 -130
13 -14 23 -28 23 -31 0 -3 8 -15 18 -27 10 -11 27 -33 38 -47 10 -15 24 -32
29 -39 6 -6 25 -30 44 -54 77 -99 160 -101 284 -5 33 27 70 55 81 63 10 8 27
23 38 32 10 10 20 18 23 18 3 0 36 24 73 52 37 29 72 56 77 61 31 23 142 108
150 115 6 4 78 59 160 122 83 63 155 119 162 125 17 14 24 20 143 110 58 43
107 83 108 87 2 4 9 8 16 8 6 0 19 8 28 18 9 9 23 22 30 27 7 6 49 37 93 70
44 33 82 62 85 65 3 3 23 19 45 35 22 16 47 35 55 42 12 10 204 157 330 253
14 10 62 47 107 82 44 35 190 146 323 248 394 302 743 569 779 598 18 15 41
31 50 36 9 5 21 15 27 21 6 6 47 37 90 70 43 33 81 63 82 68 2 4 8 7 13 7 5 0
17 8 27 18 11 9 50 41 88 69 38 29 134 103 214 164 80 61 158 121 173 133 149
112 178 151 170 229 -3 23 -9 44 -14 45 -5 2 -9 8 -9 13 0 9 -54 84 -70 99 -3
3 -17 21 -30 40 -13 19 -27 37 -30 40 -3 3 -25 32 -50 65 -25 33 -47 62 -50
65 -4 3 -100 129 -215 280 -220 288 -246 320 -281 338 -33 17 -85 21 -120 8z
m-2865 -2497 c16 -9 64 -64 108 -121 43 -56 117 -152 163 -213 46 -60 88 -111
92 -113 4 -2 8 -8 8 -13 0 -5 9 -19 19 -31 42 -49 57 -67 71 -88 8 -12 28 -39
44 -59 58 -73 69 -144 31 -208 -9 -15 -73 -71 -142 -123 -69 -52 -130 -100
-137 -106 -6 -5 -32 -26 -57 -45 -26 -19 -108 -81 -183 -139 -75 -58 -149
-113 -165 -123 -55 -34 -135 -27 -183 16 -14 12 -53 60 -88 107 -35 47 -83
110 -107 140 -24 30 -47 60 -51 65 -4 6 -39 51 -77 100 -216 281 -215 279
-215 334 0 62 27 99 133 181 56 44 109 87 118 95 9 8 19 15 23 15 4 0 18 10
31 23 13 12 54 45 92 72 37 28 70 53 73 56 8 9 118 91 197 147 69 48 80 53
125 51 27 -2 61 -10 77 -20z"/>
<path d="M5968 4113 c-14 -3 -425 -311 -528 -396 -9 -6 -42 -32 -75 -57 -33
-24 -65 -49 -71 -55 -7 -5 -24 -19 -39 -30 -16 -11 -92 -69 -171 -130 -78 -60
-193 -148 -254 -195 -62 -47 -118 -89 -124 -95 -6 -5 -38 -30 -71 -55 -33 -24
-66 -50 -75 -57 -8 -7 -80 -62 -160 -123 -80 -61 -152 -116 -160 -123 -9 -7
-42 -33 -75 -57 -33 -25 -65 -49 -72 -55 -7 -5 -18 -15 -25 -20 -15 -12 -161
-124 -353 -270 -171 -130 -194 -148 -208 -160 -7 -6 -39 -31 -72 -55 -87 -65
-85 -63 -103 -82 -9 -10 -22 -18 -28 -18 -7 0 -14 -4 -16 -8 -1 -4 -68 -57
-148 -117 -80 -61 -147 -113 -150 -116 -3 -3 -43 -34 -90 -69 -47 -35 -119
-91 -160 -123 -99 -77 -96 -75 -165 -127 -33 -25 -61 -48 -63 -52 -2 -5 -8 -8
-13 -8 -5 0 -17 -8 -27 -18 -10 -9 -105 -82 -210 -162 -209 -159 -235 -189
-231 -263 2 -38 26 -93 54 -123 5 -7 19 -24 30 -39 11 -16 48 -65 82 -109 35
-45 73 -94 85 -111 13 -16 42 -53 66 -82 23 -29 42 -57 42 -62 0 -5 4 -11 8
-13 5 -1 39 -43 77 -93 38 -49 72 -92 75 -95 3 -3 23 -30 45 -60 22 -30 44
-60 50 -66 5 -6 19 -23 30 -39 73 -102 120 -131 198 -121 28 3 53 9 56 13 3 5
51 42 106 83 55 41 102 77 105 80 3 3 23 18 45 35 22 16 42 31 45 35 3 3 32
25 65 49 33 25 62 47 65 50 3 3 50 40 105 81 127 95 123 92 143 110 10 8 33
26 52 40 19 14 42 30 50 37 8 6 58 45 110 85 52 40 100 76 105 81 6 4 46 35
90 68 44 33 87 65 95 72 8 7 62 48 120 92 58 44 107 82 110 85 3 3 27 21 53
40 26 19 62 47 80 62 18 15 40 30 50 34 9 3 17 9 17 15 0 5 15 19 34 31 37 25
268 199 276 209 3 3 50 39 105 80 55 41 102 77 105 80 3 4 37 30 75 60 39 29
72 55 75 58 3 3 12 11 21 16 27 17 133 97 150 114 9 9 26 23 39 31 26 18 110
81 126 95 7 6 53 42 104 80 111 84 251 192 265 203 6 4 48 37 95 72 47 36 92
70 100 77 8 7 42 33 75 58 63 47 92 70 124 96 11 8 32 24 46 35 15 10 55 40
89 66 33 27 66 51 71 56 6 4 30 23 55 42 64 50 61 47 105 80 22 17 52 39 66
50 79 60 106 113 95 184 -5 32 -31 73 -114 181 -58 77 -117 151 -129 165 -13
14 -23 29 -23 33 0 5 -9 19 -20 31 -40 44 -170 216 -170 226 0 5 -4 10 -8 10
-5 0 -24 21 -42 48 -19 26 -36 49 -39 52 -4 3 -35 43 -70 90 -73 96 -126 149
-150 151 -57 5 -88 6 -103 2z m-2871 -2497 c29 -14 81 -72 138 -150 22 -31
199 -263 219 -286 6 -9 32 -42 56 -75 25 -33 47 -62 50 -65 3 -3 27 -34 53
-68 31 -42 47 -75 48 -95 1 -18 2 -39 3 -47 2 -18 -23 -68 -44 -90 -8 -9 -35
-32 -60 -51 -25 -18 -52 -39 -60 -46 -8 -7 -80 -62 -160 -123 -80 -60 -156
-119 -170 -130 -14 -11 -52 -41 -85 -66 -33 -25 -69 -52 -79 -61 -64 -53 -129
-67 -191 -43 -39 15 -32 7 -245 285 -101 132 -213 278 -248 325 -36 47 -71
103 -77 124 -15 51 -2 105 34 143 22 25 336 270 456 357 22 16 42 32 45 35 3
3 32 26 65 50 33 25 62 48 65 52 12 17 92 46 123 44 18 -2 47 -10 64 -19z"/>
</g>
</svg>
