<svg xmlns="http://www.w3.org/2000/svg" viewBox="0 0 510 408"><g id="Layer_2" data-name="Layer 2"><g id="Layer_1-2" data-name="Layer 1"><rect width="510" height="408" style="fill:#1f2937"/></g><g id="Layer_2-2" data-name="Layer 2"><rect x="15" y="48.83" width="100" height="146" rx="7" style="fill:#d1d5db"/><rect x="21" y="54.83" width="88" height="52" rx="4" style="fill:#6366f1"/><rect x="21" y="114" width="79" height="12" rx="2" style="fill:#4b5563"/><rect x="21.77" y="133.49" width="56.79" height="9.05" rx="2" style="fill:#6b7280"/><rect x="15.16" y="210.43" width="100" height="146" rx="7" style="fill:#d1d5db"/><rect x="21.16" y="216.43" width="88" height="52" rx="4" style="fill:#4f46e5"/><rect x="21.16" y="275.43" width="65" height="12" rx="2" style="fill:#4b5563"/><rect x="21.93" y="295.1" width="56.79" height="9.05" rx="2" style="fill:#6b7280"/><rect x="141.83" y="210.43" width="100" height="146" rx="7" style="fill:#d1d5db"/><rect x="147.83" y="216.43" width="88" height="52" rx="4" style="fill:#6366f1"/><rect x="147.83" y="275.43" width="59" height="12" rx="2" style="fill:#4b5563"/><rect x="148.59" y="295.1" width="56.79" height="9.05" rx="2" style="fill:#6b7280"/><rect x="268.49" y="210.43" width="100" height="146" rx="7" style="fill:#d1d5db"/><rect x="274.49" y="216.43" width="88" height="52" rx="4" style="fill:#ec4899"/><rect x="274.49" y="275.43" width="84" height="12" rx="2" style="fill:#4b5563"/><rect x="275.26" y="295.1" width="56.79" height="9.05" rx="2" style="fill:#6b7280"/><rect x="141.72" y="48.83" width="100" height="146" rx="7" style="fill:#d1d5db"/><rect x="147.72" y="54.83" width="88" height="52" rx="4" style="fill:#db2777"/><rect x="147.72" y="113.83" width="50" height="12" rx="2" style="fill:#4b5563"/><rect x="148.49" y="133.49" width="56.79" height="9.05" rx="2" style="fill:#6b7280"/><rect x="268.44" y="48.83" width="100" height="146" rx="7" style="fill:#d1d5db"/><rect x="274.44" y="54.83" width="88" height="52" rx="4" style="fill:#4f46e5"/><rect x="274.44" y="113.83" width="73" height="12" rx="2" style="fill:#4b5563"/><rect x="275.21" y="133.49" width="56.79" height="9.05" rx="2" style="fill:#6b7280"/><rect x="395.16" y="48.83" width="100" height="146" rx="7" style="fill:#d1d5db"/><rect x="401.16" y="54.83" width="88" height="52" rx="4" style="fill:#ec4899"/><rect x="401.16" y="113.83" width="81" height="12" rx="2" style="fill:#4b5563"/><rect x="401.93" y="133.49" width="56.79" height="9.05" rx="2" style="fill:#6b7280"/><rect x="395.16" y="210.43" width="100" height="146" rx="7" style="fill:#d1d5db"/><rect x="401.16" y="216.43" width="88" height="52" rx="4" style="fill:#6366f1"/><rect x="401.16" y="275.43" width="73" height="12" rx="2" style="fill:#4b5563"/><rect x="401.93" y="295.1" width="56.79" height="9.05" rx="2" style="fill:#6b7280"/></g></g></svg>