<svg xmlns="http://www.w3.org/2000/svg" viewBox="0 0 511.5 408"><g id="Layer_2" data-name="Layer 2"><g id="Layer_1-2" data-name="Layer 1"><rect x="1.5" width="510" height="408" style="fill:#1f2937"/></g><g id="Layer_2-2" data-name="Layer 2"><rect x="57.62" y="77.85" width="175.42" height="47.96" rx="5" style="fill:#d1d5db"/><rect x="62.66" y="82.9" width="37.86" height="37.86" rx="4" style="fill:#6366f1"/><rect x="111.88" y="86.68" width="87.08" height="13.88" rx="2" style="fill:#4b5563"/><rect x="111.88" y="107.92" width="56.79" height="9.05" rx="2" style="fill:#6b7280"/><rect x="156.2" y="136.34" width="175.42" height="47.96" rx="5" style="fill:#d1d5db"/><rect x="161.25" y="141.39" width="37.86" height="37.86" rx="4" style="fill:#db2777"/><rect x="210.47" y="145.17" width="87.08" height="13.88" rx="2" style="fill:#4b5563"/><rect x="210.47" y="166.41" width="56.79" height="9.05" rx="2" style="fill:#6b7280"/><rect x="67.86" y="194.39" width="175.42" height="47.96" rx="5" style="fill:#d1d5db"/><rect x="72.91" y="199.44" width="37.86" height="37.86" rx="4" style="fill:#db2777"/><rect x="122.13" y="203.23" width="87.08" height="13.88" rx="2" style="fill:#4b5563"/><rect x="122.13" y="224.46" width="56.79" height="9.05" rx="2" style="fill:#6b7280"/><rect x="314.56" y="194.65" width="175.42" height="47.96" rx="5" style="fill:#d1d5db"/><rect x="319.6" y="199.7" width="37.86" height="37.86" rx="4" style="fill:#6366f1"/><rect x="368.82" y="203.48" width="87.08" height="13.88" rx="2" style="fill:#4b5563"/><rect x="368.82" y="224.72" width="56.79" height="9.05" rx="2" style="fill:#6b7280"/><rect x="121.56" y="252.65" width="175.42" height="47.96" rx="5" style="fill:#d1d5db"/><rect x="126.6" y="257.7" width="37.86" height="37.86" rx="4" style="fill:#4f46e5"/><rect x="175.82" y="261.48" width="87.08" height="13.88" rx="2" style="fill:#4b5563"/><rect x="175.82" y="282.72" width="56.79" height="9.05" rx="2" style="fill:#6b7280"/><line x1="1.5" y1="131" x2="511.5" y2="131" style="fill:none;stroke:#4338ca;stroke-miterlimit:10"/><line x1="1.5" y1="189.5" x2="511.5" y2="189.5" style="fill:none;stroke:#4338ca;stroke-miterlimit:10"/><line y1="248" x2="510" y2="248" style="fill:none;stroke:#4338ca;stroke-miterlimit:10"/><line x1="1.5" y1="305.5" x2="511.5" y2="305.5" style="fill:none;stroke:#4338ca;stroke-miterlimit:10"/><line x1="1.5" y1="363.5" x2="511.5" y2="363.5" style="fill:none;stroke:#4338ca;stroke-miterlimit:10"/><line x1="1.5" y1="72.5" x2="511.5" y2="72.5" style="fill:none;stroke:#4338ca;stroke-miterlimit:10"/><rect x="18.68" y="51.32" width="29.57" height="13.24" rx="2" style="fill:#374151"/><rect x="93.07" y="51.32" width="29.57" height="13.24" rx="2" style="fill:#374151"/><rect x="167.64" y="51.32" width="29.57" height="13.24" rx="2" style="fill:#374151"/><rect x="242.21" y="51.32" width="29.57" height="13.24" rx="2" style="fill:#374151"/><rect x="316.78" y="51.32" width="29.57" height="13.24" rx="2" style="fill:#374151"/><rect x="391.36" y="51.32" width="29.57" height="13.24" rx="2" style="fill:#374151"/><rect x="465.93" y="51.32" width="29.57" height="13.24" rx="2" style="fill:#374151"/><rect x="18.47" y="95.31" width="29.57" height="13.24" rx="2" style="fill:#4b5563"/><rect x="18.47" y="153.31" width="29.57" height="13.24" rx="2" style="fill:#4b5563"/><rect x="18.47" y="211.31" width="29.57" height="13.24" rx="2" style="fill:#4b5563"/><rect x="18.47" y="270.31" width="29.57" height="13.24" rx="2" style="fill:#4b5563"/><rect x="18.47" y="328.31" width="29.57" height="13.24" rx="2" style="fill:#4b5563"/><rect x="314.56" y="309.65" width="175.42" height="47.96" rx="5" style="fill:#d1d5db"/><rect x="319.6" y="314.7" width="37.86" height="37.86" rx="4" style="fill:#ec4899"/><rect x="368.82" y="318.48" width="87.08" height="13.88" rx="2" style="fill:#4b5563"/><rect x="368.82" y="339.72" width="56.79" height="9.05" rx="2" style="fill:#6b7280"/></g></g></svg>